<?xml version="1.0" encoding="UTF-8" standalone="no"?>
<!-- Generator: Adobe Illustrator 15.0.2, SVG Export Plug-In . SVG Version: 6.00 Build 0)  -->

<svg
   xmlns:dc="http://purl.org/dc/elements/1.1/"
   xmlns:cc="http://creativecommons.org/ns#"
   xmlns:rdf="http://www.w3.org/1999/02/22-rdf-syntax-ns#"
   xmlns:svg="http://www.w3.org/2000/svg"
   xmlns="http://www.w3.org/2000/svg"
   xmlns:sodipodi="http://sodipodi.sourceforge.net/DTD/sodipodi-0.dtd"
   xmlns:inkscape="http://www.inkscape.org/namespaces/inkscape"
   version="1.1"
   x="0px"
   y="0px"
   width="250px"
   height="250px"
   viewBox="0 0 250 250"
   enable-background="new 0 0 250 250"
   xml:space="preserve"
   id="svg2"
   inkscape:version="0.48.2 r9819"
   sodipodi:docname="1.svg"><metadata
   id="metadata95"><rdf:RDF><cc:Work
       rdf:about=""><dc:format>image/svg+xml</dc:format><dc:type
         rdf:resource="http://purl.org/dc/dcmitype/StillImage" /></cc:Work></rdf:RDF></metadata><defs
   id="defs93">
	
	
	
	
	
	
	
	
	
	
	
	
	
	
	
	
	
	
	
	
	
</defs><sodipodi:namedview
   pagecolor="#ffffff"
   bordercolor="#666666"
   borderopacity="1"
   objecttolerance="10"
   gridtolerance="10"
   guidetolerance="10"
   inkscape:pageopacity="0"
   inkscape:pageshadow="2"
   inkscape:window-width="640"
   inkscape:window-height="480"
   id="namedview91"
   showgrid="false"
   inkscape:zoom="0.944"
   inkscape:cx="125"
   inkscape:cy="125"
   inkscape:window-x="1943"
   inkscape:window-y="180"
   inkscape:window-maximized="0"
   inkscape:current-layer="svg2" />
<path
   style="fill:#aa8d49;stroke:#000000"
   inkscape:connector-curvature="0"
   id="path5"
   d="m 125.526,233.66 c -13.333,0 -25.333,-17 -25.333,-17 L 28.097,120.841 c 0,0 -5.948,-14.654 4.841,-27.409 L 65.26,57.249 136.028,31.77 220.806,93.256 c 0,0 9.343,9.918 2.409,19.667 l -70.022,103.402 c 0,0.001 -12.334,17.335 -27.667,17.335 z" /><path
   style="fill:#0a823b"
   inkscape:connector-curvature="0"
   id="path7"
   d="m 125.559,223.075 c -12.041,0 -22.877,-15.352 -22.877,-15.352 L 37.56,121.52 c 0,0 -5.744,-10.354 2.257,-22.189 l 30.35,-35.068 65.982,-24.509 80.947,57.25 c 0,0 8.68,6.995 -1.896,18.853 l -64.658,91.565 c 0,-0.001 -11.137,15.653 -24.983,15.653 z" /><text
   style="font-size:10px;fill:#ff0000;font-family:Arial-BoldMT"
   id="text41"
   font-size="10"
   x="15.6494"
   y="93.573196">330</text>
<text
   id="text43"
   x="129.228"
   y="28.186501"><tspan
     style="font-size:10px;fill:#ff0000;font-family:Arial-BoldMT"
     id="tspan45"
     font-size="10"
     y="28.186501"
     x="129.228">400</tspan><tspan
     style="font-size:10px;letter-spacing:16;fill:#ff0000;font-family:Arial-BoldMT"
     id="tspan47"
     letter-spacing="16"
     font-size="10"
     y="28.186501"
     x="145.91299"> </tspan></text>
<text
   style="font-size:10px;fill:#ff0000;font-family:Arial-BoldMT"
   id="text49"
   font-size="10"
   x="225.77589"
   y="93.573196">330</text>
<text
   style="font-size:10px;fill:#ff0000;font-family:Arial-BoldMT"
   id="text51"
   font-size="10"
   x="42.858898"
   y="60.285198">365</text>
<text
   style="font-size:10px;fill:#ff0000;font-family:Arial-BoldMT"
   id="text53"
   font-size="10"
   x="90.8237"
   y="39.752899">387</text>
<text
   style="font-size:10px;fill:#ff0000;font-family:Arial-BoldMT"
   id="text55"
   font-size="10"
   x="161.5269"
   y="48.349602">370</text>
<text
   style="font-size:10px;fill:#ff0000;font-family:Arial-BoldMT"
   id="text57"
   font-size="10"
   x="186.9214"
   y="61.642601">365</text>

<g
   id="Grass_Sand_1_-_most">
	<g
   id="g60">
		<circle
   fill="#A98C48"
   cx="125.59"
   cy="177.702"
   r="5.042"
   id="circle62" />
		<path
   fill="#A98C48"
   d="M155.49,173.743l3-3.666c0,0-9.381-26.161-32.999-26c-24.027,0.163-34.667,26-34.667,26l3.667,3    l-2.443,2.93l25.152,25.181c0,0-1.321,11.223,7.816,11.223s7.909-10.366,7.837-11.465l24.689-24.609L155.49,173.743z     M144.333,180.493l-16.9,16.901h-4.634l-16.969-16.971v-5.126l16.957-16.956h4.657l16.889,16.887V180.493z"
   id="path64" />
		<path
   fill="none"
   stroke="#FFFFFF"
   stroke-width="2"
   d="M15.649,93.573"
   id="path66" />
		<path
   fill="none"
   stroke="#FFFFFF"
   stroke-width="2"
   d="M125.245,204.252"
   id="path68" />
		<path
   fill="none"
   stroke="#FFFFFF"
   stroke-width="2"
   d="M231.985,94.251"
   id="path70" />
	</g>
</g>
<g
   id="Bases_and_chalk_lines-ALL">
	<g
   id="g73">
		<path
   fill="none"
   stroke="#FFFFFF"
   stroke-width="2"
   d="M15.649,93.573"
   id="path75" />
		<path
   fill="none"
   stroke="#FFFFFF"
   stroke-width="2"
   d="M125.245,204.252"
   id="path77" />
		<path
   fill="none"
   stroke="#FFFFFF"
   stroke-width="2"
   d="M231.985,94.251"
   id="path79" />
	</g>
	<rect
   id="mound"
   x="123.173"
   y="176.677"
   fill="#FFFFFF"
   stroke="#FFFFFF"
   width="3.98"
   height="1.551" />
	
		<rect
   x="98.413"
   y="174.554"
   transform="matrix(0.7073 -0.7069 0.7069 0.7073 -95.2216 122.1922)"
   fill="#FFFFFF"
   stroke="#FFFFFF"
   width="3.045"
   height="3.043"
   id="rect82" />
	
		<rect
   x="148.888"
   y="174.554"
   transform="matrix(0.7073 -0.7069 0.7069 0.7073 -80.4461 157.8751)"
   fill="#FFFFFF"
   stroke="#FFFFFF"
   width="3.045"
   height="3.043"
   id="rect84" />
	
		<rect
   x="123.651"
   y="149.316"
   transform="matrix(0.7069 -0.7073 0.7073 0.7069 -70.0005 132.7347)"
   fill="#FFFFFF"
   stroke="#FFFFFF"
   width="3.045"
   height="3.044"
   id="rect86" />
	<polygon
   id="homeplate"
   fill="#FFFFFF"
   stroke="#FFFFFF"
   points="126.7,201.884 125.162,203.405 123.654,201.884 123.654,200.361    126.7,200.361  " />
	<polyline
   fill="none"
   stroke="#FFFFFF"
   stroke-width="1.5"
   points="234.566,94.251 125.177,203.466 17.941,96.187  "
   id="polyline89" />
</g>
</svg>